#!OML:ASF H:\Terrain\Walking\May29\JustinRory\Justin.ASF
:FULLY-SPECIFIED
:DEGREES
1057
root 7.17442 17.4855 -15.6012 -0.595343 -2.48868 -1.24234
lowerback 5.63893 -0.511905 -1.91481
upperback 0.784034 -0.732774 2.66106
thorax -2.29506 -0.34123 3.88048
lowerneck -13.6636 -1.49871 -10.2022
upperneck 13.3815 -0.548162 3.76203
head 6.36193 -0.478063 2.81766
rclavicle 1.29459e-014 -3.57812e-015
rhumerus -13.0157 23.1097 -32.544
rradius 126.922
rwrist -20.7707
rhand -9.38263 38.9199
rfingers 7.12502
rthumb 16.5781 9.60798
lclavicle 1.29459e-014 -3.57812e-015
lhumerus -14.9402 -22.4324 36.2023
lradius 125.826
lwrist 7.77834
lhand -6.59304 25.0026
lfingers 7.12502
lthumb 19.2622 54.0686
rfemur -4.07549 -3.87426 20.8834
rtibia 22.8978
rfoot -15.1482 -11.7579
rtoes 0.0802095
lfemur -3.47267 2.05114 -13.6145
ltibia 23.1306
lfoot -16.4163 3.74991
ltoes -13.0416
1058
root 7.17134 17.4948 -15.5928 -0.582152 -2.45129 -1.38604
lowerback 5.56868 -0.526538 -1.78681
upperback 0.770486 -0.742585 2.71574
thorax -2.26988 -0.347264 3.86451
lowerneck -13.5492 -1.36357 -10.2477
upperneck 13.4794 -0.4194 4.07931
head 6.3634 -0.395113 2.94138
rclavicle -1.02871e-014 5.1684e-015
rhumerus -12.7281 21.9581 -32.3106
rradius 126.688
rwrist -21.2748
rhand -9.5594 39.342
rfingers 7.12502
rthumb 16.4079 10.016
lclavicle -1.02871e-014 5.1684e-015
lhumerus -14.4093 -21.6193 35.9161
lradius 125.173
lwrist 7.07743
lhand -7.07885 25.4424
lfingers 7.12502
lthumb 18.795 54.5544
rfemur -3.98952 -3.93114 21.0425
rtibia 22.7341
rfoot -15.0456 -11.7886
rtoes 0.190505
lfemur -3.4042 2.00041 -13.4552
ltibia 23.0068
lfoot -16.4351 3.75738
ltoes -12.6073
1059
root 7.16908 17.5055 -15.5949 -0.493778 -2.42442 -1.46831
lowerback 5.55574 -0.53287 -1.74581
upperback 0.716269 -0.746174 2.78015
thorax -2.31797 -0.347703 3.90903
lowerneck -13.6838 -1.32499 -10.2026
upperneck 13.7785 -0.361412 4.0717
head 6.4776 -0.371409 2.94091
rclavicle 2.90723e-015 -1.86858e-014
rhumerus -12.6215 20.4992 -32.3633
rradius 126.524
rwrist -21.7552
rhand -9.47194 39.7942
rfingers 7.12502
rthumb 16.4921 10.4751
lclavicle 2.90723e-015 -1.86858e-014
lhumerus -14.0906 -20.684 35.7687
lradius 124.649
lwrist 6.74909
lhand -7.89422 26.3092
lfingers 7.12502
lthumb 18.0106 55.4953
rfemur -4.05398 -3.90711 21.173
rtibia 22.6387
rfoot -14.9869 -11.8197
rtoes -0.166706
lfemur -3.4487 1.85168 -13.3817
ltibia 22.8366
lfoot -16.2364 3.88101
ltoes -12.6909
1060
root 7.17086 17.5115 -15.5982 -0.378953 -2.406 -1.04378
lowerback 5.47991 -0.539932 -2.12681
upperback 0.674267 -0.780421 2.66176
thorax -2.31258 -0.361356 4.0035
lowerneck -13.4608 -1.41874 -10.3543
upperneck 13.5304 -0.478913 4.05556
head 6.36998 -0.433325 2.94575
rclavicle 6.95746e-015 -1.19271e-014
rhumerus -12.5518 18.9453 -32.9326
rradius 126.429
rwrist -22.2062
rhand -9.99445 39.6519
rfingers 7.12502
rthumb 15.989 10.2918
lclavicle 6.95746e-015 -1.19271e-014
lhumerus -13.9239 -19.6548 35.8627
lradius 124.126
lwrist 6.66635
lhand -8.90159 27.4477
lfingers 7.12502
lthumb 17.0412 56.7202
rfemur -4.19201 -3.94658 20.6931
rtibia 22.5796
rfoot -15.0217 -11.7248
rtoes 0.1713
lfemur -3.51543 1.75945 -13.8886
ltibia 22.6592
lfoot -16.1249 3.97046
ltoes -12.2285
1061
root 7.17515 17.5109 -15.5978 -0.324552 -2.33882 -0.821139
lowerback 5.46035 -0.574542 -2.24261
upperback 0.636106 -0.83517 2.57035
thorax -2.33603 -0.386984 3.97802
lowerneck -12.7192 -1.32834 -10.5458
upperneck 12.6412 -0.437611 4.30857
head 5.95781 -0.387407 3.05094
rclavicle 4.82053e-015 4.37326e-015
rhumerus -12.5468 17.5802 -33.8761
rradius 126.511
rwrist -22.5969
rhand -11.3954 38.6002
rfingers 7.12502
rthumb 14.6395 9.13698
lclavicle 4.82053e-015 4.37326e-015
lhumerus -13.8112 -18.6813 36.3749
lradius 123.606
lwrist 6.68494
lhand -9.83528 28.2483
lfingers 7.12502
lthumb 16.1423 57.596
rfemur -4.2494 -4.15746 20.4056
rtibia 22.6001
rfoot -15.0513 -11.6792
rtoes 0.185388
lfemur -3.48282 1.67593 -14.1703
ltibia 22.4637
lfoot -16.0704 4.03108
ltoes -11.9841
1062
root 7.17526 17.5121 -15.5947 -0.303404 -2.2301 -0.843211
lowerback 5.44867 -0.605854 -2.19813
upperback 0.680903 -0.872932 2.63724
thorax -2.27968 -0.407704 4.02434
lowerneck -12.837 -1.3907 -10.5865
upperneck 12.5472 -0.46605 4.08013
head 5.95118 -0.417694 2.98029
rclavicle 6.83322e-015 3.26007e-014
rhumerus -12.5402 16.1964 -34.9085
rradius 126.624
rwrist -22.6839
rhand -12.7193 37.4378
rfingers 7.12502
rthumb 13.3638 7.88638
lclavicle 6.83322e-015 3.26007e-014
lhumerus -13.6775 -17.6246 37.3572
lradius 123.309
lwrist 6.67396
lhand -10.5913 29.429
lfingers 7.12502
lthumb 15.4141 58.8343
rfemur -4.24033 -4.4061 20.4125
rtibia 22.6173
rfoot -14.9664 -11.6748
rtoes -0.75127
lfemur -3.40282 1.69444 -14.1366
ltibia 22.2685
lfoot -16.0079 3.92425
ltoes -12.4115
1063
root 7.17294 17.5124 -15.5921 -0.278213 -2.29612 -0.663935
lowerback 5.42097 -0.570047 -2.42694
upperback 0.731497 -0.837612 2.69241
thorax -2.21086 -0.390049 4.20806
lowerneck -13.4293 -1.61562 -10.6578
upperneck 13.1505 -0.63042 3.69801
head 6.25791 -0.542161 2.85999
rclavicle -1.2424e-014 -7.95139e-016
rhumerus -12.6998 14.7831 -36.2486
rradius 126.764
rwrist -22.4359
rhand -13.3334 36.0472
rfingers 7.12502
rthumb 12.7718 6.45787
lclavicle -1.2424e-014 -7.95139e-016
lhumerus -13.8983 -16.5147 38.605
lradius 123.325
lwrist 6.56756
lhand -11.3878 30.9781
lfingers 7.12502
lthumb 14.6468 60.4408
rfemur -4.21065 -4.4754 20.2093
rtibia 22.5228
rfoot -14.8693 -11.5622
rtoes -0.949115
lfemur -3.35992 1.83898 -14.3149
ltibia 22.1821
lfoot -15.9898 3.81787
ltoes -12.5863
1064
root 7.17278 17.5166 -15.5886 -0.213458 -2.5256 -0.625187
lowerback 5.39231 -0.490312 -2.42889
upperback 0.680482 -0.730753 2.684
thorax -2.25725 -0.334968 4.19303
lowerneck -13.5133 -1.62453 -10.5876
upperneck 13.5011 -0.645647 3.68854
head 6.38507 -0.555261 2.84784
rclavicle -4.52235e-015 -1.59028e-015
rhumerus -13.2477 13.4645 -38.0928
rradius 127.007
rwrist -22.214
rhand -13.6813 35.0674
rfingers 7.12502
rthumb 12.4364 5.45736
lclavicle -4.52235e-015 -1.59028e-015
lhumerus -14.4798 -15.4806 39.9545
lradius 123.494
lwrist 6.61646
lhand -12.1352 32.1581
lfingers 7.12502
lthumb 13.9267 61.6717
rfemur -4.23068 -4.32666 20.1737
rtibia 22.403
rfoot -14.8151 -11.4882
rtoes -0.252497
lfemur -3.34891 1.73779 -14.3666
ltibia 22.1736
lfoot -16.1654 3.9514
ltoes -12.2214
1065
root 7.17598 17.5184 -15.5844 -0.219495 -2.63535 -0.808711
lowerback 5.52041 -0.445891 -2.09278
upperback 0.584426 -0.652129 2.66866
thorax -2.43919 -0.29402 3.98382
lowerneck -13.2461 -1.57179 -10.4039
upperneck 13.4707 -0.64276 3.6925
head 6.32811 -0.545195 2.81929
rclavicle -5.51627e-015 2.54444e-014
rhumerus -13.9006 12.1599 -40.2251
rradius 127.309
rwrist -21.8359
rhand -14.9298 35.3571
rfingers 7.12502
rthumb 11.2324 5.67786
lclavicle -5.51627e-015 2.54444e-014
lhumerus -15.0998 -14.4944 41.4397
lradius 123.757
lwrist 6.93075
lhand -12.7308 32.832
lfingers 7.12502
lthumb 13.3527 62.3841
rfemur -4.17642 -4.43977 20.354
rtibia 22.3171
rfoot -14.7158 -11.366
rtoes -1.10424
lfemur -3.27891 1.62335 -14.1742
ltibia 22.1976
lfoot -16.3672 4.04106
ltoes -12.2881
